<svg
	version="1.1"
	xmlns="http://www.w3.org/2000/svg"
	viewBox="0 0 100 100">

	<path d="M84.9,60.4c0.4,0.2,0.7,0.5,0.8,0.9c0.2,0.4,0.2,0.8,0.1,1.2c-1.7,5.3-4.5,10.1-8.3,14.2c-0.3,0.3-0.7,0.5-1.1,0.6
		s-0.8,0.1-1.2-0.2l-6.3-3.8c-2.7,2.3-5.8,4.1-9.2,5.3V86c0,0.4-0.1,0.8-0.4,1.1c-0.3,0.4-0.6,0.6-1,0.7c-5.5,1.2-11.1,1.2-16.6,0
		c-0.4-0.1-0.7-0.3-1-0.7s-0.4-0.7-0.4-1.1v-7.4c-3.4-1.2-6.5-3-9.2-5.3l-6.3,3.8c-0.4,0.2-0.8,0.3-1.2,0.2
		c-0.4-0.1-0.8-0.3-1.1-0.6c-3.8-4.1-6.6-8.9-8.3-14.2c-0.1-0.4-0.1-0.8,0.1-1.2s0.4-0.7,0.8-0.9l6.3-3.8c-0.6-3.5-0.6-7,0-10.6
		l-6.3-3.8c-0.4-0.2-0.7-0.5-0.8-0.9c-0.2-0.4-0.2-0.8-0.1-1.2c1.7-5.3,4.5-10.1,8.3-14.2c0.3-0.3,0.7-0.5,1.1-0.6
		c0.4-0.1,0.8-0.1,1.2,0.2l6.3,3.8c2.7-2.3,5.8-4.1,9.2-5.3v-7.4c0-0.4,0.1-0.8,0.4-1.1s0.6-0.6,1-0.7c5.5-1.2,11.1-1.2,16.6,0
		c0.4,0.1,0.7,0.3,1,0.7c0.3,0.4,0.4,0.7,0.4,1.1V24c3.4,1.2,6.5,3,9.2,5.3l6.3-3.8c0.4-0.2,0.8-0.3,1.2-0.2s0.8,0.3,1.1,0.6
		c3.8,4.1,6.6,8.9,8.3,14.2c0.1,0.4,0.1,0.8-0.1,1.2c-0.2,0.4-0.4,0.7-0.8,0.9L78.5,46c0.6,3.5,0.6,7,0,10.6L84.9,60.4z M58.5,42.8
		c-2.4-2.4-5.2-3.5-8.5-3.5s-6.2,1.2-8.5,3.5s-3.5,5.2-3.5,8.5s1.2,6.2,3.5,8.5s5.2,3.5,8.5,3.5s6.2-1.2,8.5-3.5s3.5-5.2,3.5-8.5
		S60.9,45.2,58.5,42.8z"/>

</svg>
