<svg
	version="1.1"
	xmlns="http://www.w3.org/2000/svg"
	viewBox="0 0 100 100">

	<path d="M54.2,27.9c0.4-0.4,0.8-0.6,1.3-0.6s0.9,0.2,1.2,0.6l16.6,16.6c0.4,0.3,0.6,0.7,0.6,1.2s-0.2,0.9-0.6,1.3L34.1,86.4
		l-18.3,3.3c-1.2,0.2-2.2-0.2-3.1-1c-0.9-0.9-1.2-1.9-1-3.1l3.3-18.3L54.2,27.9z M24.8,76.5v-7.2h-5.4l-1.8,9.6l4.8,4.8l9.6-1.8
		v-5.4H24.8z M30.2,63.9c0.4,0.4,0.9,0.6,1.5,0.6c0.6,0,1.1-0.2,1.5-0.6l23.1-23.1c0.4-0.4,0.6-0.9,0.6-1.5c0-0.6-0.2-1.1-0.6-1.5
		c-0.4-0.4-0.9-0.6-1.5-0.6c-0.6,0-1.1,0.2-1.5,0.6L30.2,60.9c-0.4,0.4-0.6,0.9-0.6,1.5C29.6,63,29.8,63.5,30.2,63.9z M86.3,34.2
		c1.4-1.4,2.1-3.1,2.1-5.1c0-2-0.7-3.7-2.1-5.1l-9-9c-1.4-1.4-3.1-2.1-5.1-2.1s-3.7,0.7-5.1,2.1l-6.9,6.9c-0.4,0.4-0.6,0.8-0.6,1.3
		c0,0.5,0.2,0.9,0.6,1.2l16.6,16.6c0.3,0.4,0.7,0.6,1.2,0.6s1-0.2,1.3-0.6L86.3,34.2z"/>

</svg>
