<svg version="1.1"
	 xmlns="http://www.w3.org/2000/svg"
	 viewBox="0 0 100 100" >

	<path d="M88.5,51.3H11.5v-12c0-2,0.7-3.7,2.1-5.1s3.1-2.1,5.1-2.1h12v-7.2c0-2,0.7-3.7,2.1-5.1s3.1-2.1,5.1-2.1H62
		c2,0,3.7,0.7,5.1,2.1s2.1,3.1,2.1,5.1v7.2h12c2,0,3.7,0.7,5.1,2.1s2.1,3.1,2.1,5.1V51.3z M88.5,56.1v21.7c0,2-0.7,3.7-2.1,5.1
		C85,84.3,83.3,85,81.3,85H18.7c-2,0-3.7-0.7-5.1-2.1c-1.4-1.4-2.1-3.1-2.1-5.1V56.1h28.9v3c0,0.5,0.2,0.9,0.5,1.3
		c0.4,0.4,0.8,0.5,1.3,0.5h15.7c0.5,0,0.9-0.2,1.3-0.5c0.4-0.4,0.5-0.8,0.5-1.3v-3H88.5z M40.4,27.2v4.8h19.3v-4.8H40.4z"/>

</svg>
