<svg
	version="1.1"
	xmlns="http://www.w3.org/2000/svg"
	viewBox="0 0 100 100">

	<path d="M92.6,50.7c0.3,0.3,0.5,0.7,0.5,1.2c0,0.5-0.1,1-0.4,1.4L89,57.9c-0.3,0.4-0.7,0.6-1.2,0.6c-0.5,0-1-0.1-1.4-0.5l-35.3-29
		c-0.4-0.3-0.8-0.5-1.2-0.5s-0.8,0.1-1.2,0.5l-35.3,29c-0.4,0.3-0.9,0.5-1.4,0.5c-0.5,0-0.9-0.2-1.2-0.6l-3.8-4.7
		c-0.3-0.4-0.4-0.9-0.4-1.4c0-0.5,0.2-0.9,0.5-1.2l38.1-31.4c1.3-1.1,2.8-1.7,4.5-1.7s3.3,0.6,4.7,1.7L68,30.5v-11
		c0-0.5,0.2-0.9,0.5-1.3c0.4-0.4,0.8-0.5,1.3-0.5h8.4c0.5,0,0.9,0.2,1.3,0.5c0.3,0.4,0.5,0.8,0.5,1.3v20.9L92.6,50.7z M80,59.9
		c0-0.6-0.2-1.1-0.6-1.5L51.2,35.3c-0.4-0.3-0.8-0.5-1.2-0.5s-0.8,0.2-1.2,0.5L20.6,58.4c-0.4,0.4-0.6,0.9-0.6,1.5v21.5
		c0,1,0.4,1.9,1.1,2.6c0.7,0.7,1.6,1,2.6,1H41c0.5,0,0.9-0.2,1.3-0.5c0.4-0.4,0.5-0.8,0.5-1.3V66.3c0-0.5,0.2-0.9,0.5-1.3
		s0.8-0.5,1.3-0.5h10.8c0.5,0,0.9,0.2,1.3,0.5c0.4,0.4,0.5,0.8,0.5,1.3v16.8c0,0.5,0.2,0.9,0.5,1.3c0.4,0.3,0.8,0.5,1.3,0.5h17.4
		c1,0,1.9-0.3,2.6-1s1-1.6,1-2.6V59.9z"/>

</svg>
