
<svg
	version="1.1"
	xmlns="http://www.w3.org/2000/svg"
	viewBox="0 0 100 100">

	<path d="M50,14.1c6.7,0,12.9,1.7,18.6,5c5.7,3.4,10.2,7.9,13.6,13.6s5,11.9,5,18.6s-1.7,12.9-5,18.6c-3.4,5.7-7.9,10.2-13.6,13.6
		c-5.7,3.4-11.9,5-18.6,5s-12.9-1.7-18.6-5c-5.7-3.4-10.2-7.9-13.6-13.6c-3.4-5.7-5-11.9-5-18.6s1.7-12.9,5-18.6s7.9-10.2,13.6-13.6
		C37.1,15.8,43.3,14.1,50,14.1z M50,20.1c-5.7,0-10.9,1.4-15.7,4.2S25.8,30.9,23,35.6c-2.8,4.8-4.2,10-4.2,15.7
		c0,5.7,1.4,10.9,4.2,15.7c2.8,4.8,6.6,8.5,11.3,11.3c4.8,2.8,10,4.2,15.7,4.2c5.7,0,10.9-1.4,15.7-4.2c4.8-2.8,8.5-6.6,11.3-11.3
		c2.8-4.8,4.2-10,4.2-15.7c0-5.7-1.4-10.9-4.2-15.7c-2.8-4.8-6.6-8.5-11.3-11.3S55.7,20.1,50,20.1z M50,22.5c5.2,0,10,1.3,14.4,3.9
		s7.9,6.1,10.5,10.5s3.9,9.2,3.9,14.4c0,5.2-1.3,10-3.9,14.4c-2.6,4.4-6.1,7.9-10.5,10.5c-4.4,2.6-9.2,3.9-14.4,3.9
		c-5.2,0-10-1.3-14.4-3.9c-4.4-2.6-7.9-6.1-10.5-10.5c-2.6-4.4-3.9-9.2-3.9-14.4c0-5.2,1.3-10,3.9-14.4c2.6-4.4,6.1-7.9,10.5-10.5
		C40,23.8,44.8,22.5,50,22.5z M67.7,43.8c0.6-0.1,1.1-0.5,1.4-1.1c0.3-0.6,0.5-1.2,0.3-1.9c-0.2-0.7-0.5-1.2-1.1-1.5
		c-0.5-0.4-1.2-0.4-1.9-0.2c-5,1.2-8.9,2-11.7,2.3c-3.2,0.4-6.4,0.4-9.6,0c-2.8-0.3-6.7-1.1-11.7-2.3c-0.7-0.2-1.3-0.1-1.9,0.2
		c-0.6,0.4-0.9,0.9-1.1,1.5c-0.1,0.6,0,1.3,0.3,1.8c0.3,0.6,0.8,0.9,1.4,1.1c5.3,1.2,9.4,2,12.3,2.4c0,6.3-0.4,11.3-1.1,14.9
		c-0.4,2.2-1.2,4.7-2.3,7.5l-0.5,0.9c-0.2,0.7-0.2,1.4,0.1,2.1c0.3,0.7,0.8,1.2,1.5,1.4c0.7,0.2,1.4,0.2,2-0.1
		c0.7-0.3,1.1-0.8,1.4-1.4l0.5-1.1c0.7-1.9,1.2-3.5,1.7-4.7c0.5-1.8,0.9-3.9,1.2-6.2h1.5c0.3,2.3,0.7,4.4,1.2,6.2
		c0.4,1.2,1,2.8,1.7,4.7l0.5,1.1c0.3,0.6,0.8,1,1.4,1.4c0.6,0.3,1.3,0.3,2,0.1c0.7-0.3,1.2-0.7,1.5-1.4c0.3-0.7,0.3-1.4,0.1-2.1
		l-0.5-0.9c-1.1-2.8-1.9-5.3-2.3-7.5c-0.7-3.6-1-8.6-1-14.9C58.3,45.8,62.4,45,67.7,43.8z M50,29.1c-1.5,0-2.8,0.5-3.8,1.6
		c-1.1,1.1-1.6,2.3-1.6,3.8c0,1.5,0.5,2.8,1.6,3.8c1.1,1.1,2.3,1.6,3.8,1.6c1.5,0,2.8-0.5,3.8-1.6c1.1-1.1,1.6-2.3,1.6-3.8
		c0-1.5-0.5-2.8-1.6-3.8C52.8,29.6,51.5,29.1,50,29.1z"/>

</svg>
